<?xml version="1.0"?>
<svg xmlns="http://www.w3.org/2000/svg" xmlns:xlink="http://www.w3.org/1999/xlink" xmlns:svgjs="http://svgjs.com/svgjs" version="1.1" width="512" height="512" x="0" y="0" viewBox="0 0 512.062 512.062" style="enable-background:new 0 0 512 512" xml:space="preserve" class=""><g><g xmlns="http://www.w3.org/2000/svg"><path d="m319.768 236.434-13.567-34.26h-100.451l-13.566 34.26z" fill="#ffffff" data-original="#000000" style="" class=""/><path d="m469.4 172.174v-46.335c0-73.721-33.057-111.683-34.464-113.262l-11.201-12.577-11.201 12.576c-1.407 1.58-34.463 39.542-34.463 113.262v46.335h91.329z" fill="#ffffff" data-original="#000000" style="" class=""/><path d="m487.528 236.464-13.579-34.29h-100.427l-13.579 34.29z" fill="#ffffff" data-original="#000000" style="" class=""/><path d="m152.007 236.403-13.554-34.229h-100.475l-13.555 34.229z" fill="#ffffff" data-original="#000000" style="" class=""/><path d="m355.137 266.464v27.965h-30.563v-27.995h-137.197v27.995h-30.563v-28.026h-137.197v157.744h137.197v-26.433h30.563v26.433h137.197v-26.433h30.563v26.433h137.197v-157.683z" fill="#ffffff" data-original="#000000" style="" class=""/><path d="m133.88 172.174v-46.335c0-73.721-33.057-111.683-34.464-113.262l-11.201-12.577-11.201 12.576c-1.407 1.58-34.463 39.542-34.463 113.262v46.335h91.329z" fill="#ffffff" data-original="#000000" style="" class=""/><path d="m301.64 172.174v-46.335c0-73.721-33.056-111.682-34.463-113.262l-11.201-12.577-11.201 12.576c-1.407 1.58-34.464 39.542-34.464 113.262v46.335h91.329z" fill="#ffffff" data-original="#000000" style="" class=""/><path d="m301.64 454.147h-91.329v27.884h-22.934v30h137.308v-30h-23.045z" fill="#ffffff" data-original="#000000" style="" class=""/><path d="m469.4 454.147h-91.329v27.915h-22.934v30h137.308v-30h-23.045z" fill="#ffffff" data-original="#000000" style="" class=""/><path d="m133.88 454.147h-91.329v27.853h-22.934v30h137.308v-30h-23.045z" fill="#ffffff" data-original="#000000" style="" class=""/></g></g></svg>
