<svg id="Layer_5" enable-background="new 0 0 64 64" height="512" viewBox="0 0 64 64" width="512" xmlns="http://www.w3.org/2000/svg"><path d="m56.83 46.463-1.688 1.074 1.55 2.435c.202.317.308.683.308 1.058 0 1.086-.884 1.97-2.03 1.97l.06 2c2.189 0 3.97-1.781 3.97-3.97 0-.756-.214-1.493-.621-2.132z"/><path d="m55 36.137-6.754 10.613c-.815 1.281-1.246 2.761-1.246 4.28 0 4.395 3.575 7.97 8.03 7.97 4.395 0 7.97-3.575 7.97-7.97 0-1.519-.431-2.999-1.246-4.279zm-.03 20.863c-3.292 0-5.97-2.678-5.97-5.97 0-1.138.323-2.246.934-3.206l5.066-7.961 5.066 7.962c.611.959.934 2.067.934 3.205 0 3.292-2.678 5.97-6.03 5.97z"/><path d="m38.015 30.257c1.232-1.407 1.985-3.244 1.985-5.257 0-1.682-.525-3.243-1.415-4.532l9.442-1.607 2.396 4.139h1.577v12h6v-12.108c2.841-.53 5-3.023 5-6.016 0-1.446-.515-2.851-1.449-3.955l-8.252-9.753c-1.167-1.378-2.87-2.168-4.675-2.168h-9.624v2.269l3.643 6.293-37.687 5.958c-2.292.363-3.956 2.311-3.956 4.631v1.161c0 2.585 2.103 4.688 4.688 4.688.263 0 .526-.022.787-.066l1.525-.26v5.326h-3v8h2v14h-4v8h-2v2h62v-2h-20.157zm-19.015 30.743v-8h-4v-14h2v-8h-3v-6.347l10.289-1.751c-.183.669-.289 1.371-.289 2.098 0 2.013.753 3.849 1.985 5.257l-4.852 30.743zm13-30c-3.309 0-6-2.691-6-6s2.691-6 6-6 6 2.691 6 6-2.691 6-6 6zm-2.449 15h4.898l.316 2h-5.529zm.316-2 1.739-11.02c.132.007.261.02.394.02s.263-.013.394-.02l1.739 11.02zm-2.098-12.223c.578.362 1.201.659 1.865.865l-4.475 28.358h-2.001zm1.151 18.223h6.161l1.736 11h-9.633zm5.446-17.358c.664-.206 1.287-.503 1.865-.865l4.611 29.223h-2.001zm19.634.358v-10h2v10zm-5.376-30c1.215 0 2.362.532 3.147 1.46l8.253 9.753c.629.744.976 1.69.976 2.664 0 2.273-1.85 4.123-4.123 4.123h-5.3l-10.422-18zm-42.484 20.962c-.149.025-.3.038-.452.038-1.482 0-2.688-1.206-2.688-2.688v-1.161c0-1.331.954-2.447 2.269-2.655l38.448-6.079 3.241 5.598-10.019 1.705c-1.362-1.074-3.075-1.72-4.939-1.72-2.831 0-5.317 1.482-6.739 3.707zm3.86 1.372 2-.34v6.006h-2zm-3 7.666h8v4h-8zm2 6h4v14h-4zm-4 16h12v6h-12z"/><path d="m32 21c-2.206 0-4 1.794-4 4s1.794 4 4 4 4-1.794 4-4-1.794-4-4-4zm0 6c-1.103 0-2-.897-2-2s.897-2 2-2 2 .897 2 2-.897 2-2 2z"/><path d="m56.877 19c1.171 0 2.123-.953 2.123-2.124 0-.502-.179-.989-.503-1.371l-8.253-9.754c-.405-.477-.995-.751-1.62-.751h-4l8.105 14zm-8.253-12c.037 0 .07.016.094.043l8.282 9.833c0 .067-.056.124-.123.124h-2.994l-5.79-10z"/></svg>