<svg id="Layer_1" enable-background="new 0 0 510.68 510.68" height="512" viewBox="0 0 510.68 510.68" width="512" xmlns="http://www.w3.org/2000/svg"><g><path d="m276.151 120.34h237.697v29.999h-237.697z" fill="#00a98f" transform="matrix(.926 -.379 .379 .926 -21.835 159.646)"/><path d="m255 150.34v20.52l-75-2.54v-92.98c41.35 0 75 33.64 75 75z" fill="#00a98f"/><path d="m180 75.34v92.98l-75-2.54v-15.44c0-41.36 33.65-75 75-75z" fill="#00ed89"/><path d="m317.37 217.18-39.87 53.16h-97.5v-135h99.6z" fill="#00ed89"/><path d="m180 135.34v135h-97.43l-39.95-52.44 37.74-82.56z" fill="#a5ffb4"/><path d="m510 287.31v95.53h-330v-142.5h238.43c13.81 0 27.19 4.05 38.68 11.71z" fill="#00a98f"/><path d="m180 240.34v142.5h-180v-55.39l14.32-35.79c12.47-31.18 42.22-51.32 75.8-51.32z" fill="#00ed89"/><path d="m495 382.84c0 10.36-4.2 19.73-10.98 26.52-6.79 6.78-16.16 10.98-26.52 10.98h-277.5v-75h277.5c20.71 0 37.5 16.79 37.5 37.5z" fill="#0a617d"/><path d="m180 345.34v75h-127.5c-20.71 0-37.5-16.79-37.5-37.5 0-10.36 4.2-19.73 10.98-26.52 6.79-6.78 16.16-10.98 26.52-10.98z" fill="#0a789b"/><path d="m52.5 433.944c-28.949 0-50.926-22.557-50.926-51.505s21.977-50.792 50.926-50.792 52.5 22.245 52.5 51.193-23.551 51.104-52.5 51.104zm0-73.604c-12.407 0-27.526 10.267-27.526 22.673s15.119 22.327 27.526 22.327 22.5-10.094 22.5-22.5-10.093-22.5-22.5-22.5z" fill="#08475e"/><path d="m180 361.63v-30.75c-25.41 3.64-45 25.55-45 51.96s19.59 48.32 45 51.96v-30.75c-8.73-3.09-15-11.43-15-21.21s6.27-18.12 15-21.21z" fill="#08475e"/><g fill="#05303d"><path d="m240 382.84c0 28.95-23.684 51.96-52.634 51.96-2.55 0-4.916.36-7.366 0v-30.75c2.35.84 4.87 1.29 7.5 1.29 12.41 0 22.5-10.09 22.5-22.5s-10.09-22.5-22.5-22.5c-2.63 0-5.15.45-7.5 1.29v-30.75c2.45-.36 5.039-.258 7.589-.258 28.95 0 52.411 23.268 52.411 52.218z"/><path d="m322.5 433.944c-28.949 0-52.5-22.926-52.5-51.104s23.551-51.104 52.5-51.104 52.5 22.925 52.5 51.104-23.551 51.104-52.5 51.104zm0-73.604c-12.407 0-22.5 10.094-22.5 22.5s10.093 22.5 22.5 22.5 22.5-10.094 22.5-22.5-10.093-22.5-22.5-22.5z"/><path d="m457.5 433.944c-28.949 0-52.5-22.156-52.5-51.104s23.551-51.104 52.5-51.104 37.5 22.156 37.5 51.104-8.551 51.104-37.5 51.104zm0-73.604c-12.407 0-22.5 10.094-22.5 22.5s10.093 22.5 22.5 22.5 23.889-10.277 23.889-22.683-11.482-22.317-23.889-22.317z"/></g><path d="m52.5 360.34h127.5v-30h-127.5c-28.95 0-52.5 23.55-52.5 52.5s23.55 52.5 52.5 52.5h127.5v-30h-127.5c-12.41 0-22.5-10.09-22.5-22.5s10.09-22.5 22.5-22.5z" fill="#0a617d"/><path d="m510 382.84c0 28.95-23.55 52.5-52.5 52.5h-277.5v-30h277.5c12.41 0 22.5-10.09 22.5-22.5s-10.09-22.5-22.5-22.5h-277.5v-30h277.5c28.95 0 52.5 23.55 52.5 52.5z" fill="#08475e"/></g></svg>