<?xml version="1.0" standalone="no"?>
<!DOCTYPE svg PUBLIC "-//W3C//DTD SVG 20010904//EN"
 "http://www.w3.org/TR/2001/REC-SVG-20010904/DTD/svg10.dtd">
<svg version="1.0" xmlns="http://www.w3.org/2000/svg"
 width="1280.000000pt" height="640.000000pt" viewBox="0 0 1280.000000 640.000000"
 preserveAspectRatio="xMidYMid meet">
<metadata>
Created by potrace 1.15, written by Peter Selinger 2001-2017
</metadata>
<g transform="translate(0.000000,640.000000) scale(0.100000,-0.100000)"
fill="#ffffff" stroke="none">
<path d="M6444 6102 c3 -5 49 -25 103 -45 54 -21 109 -46 123 -57 l25 -20 -97
0 c-59 0 -98 -4 -98 -10 0 -5 -16 -10 -35 -10 -21 0 -35 -5 -35 -12 0 -7 -17
-22 -38 -33 -21 -11 -43 -33 -51 -51 -12 -28 -19 -32 -62 -36 -49 -5 -89 -29
-89 -54 0 -17 -169 -32 -179 -15 -5 8 -81 -6 -259 -47 -230 -54 -252 -57 -252
-40 0 13 -7 18 -29 18 -26 0 -30 4 -33 33 -3 28 -6 32 -33 32 -26 0 -30 -4
-33 -32 -3 -26 -8 -32 -30 -35 -23 -3 -27 -8 -30 -40 -2 -24 -9 -39 -20 -42
-36 -11 -332 -76 -345 -76 -7 0 -19 21 -26 49 -15 60 -36 91 -62 91 -24 0
-157 -60 -199 -90 -39 -28 -38 -20 5 36 20 26 43 60 51 76 14 27 14 32 -1 54
-8 13 -20 24 -25 24 -5 0 -25 -33 -44 -72 -21 -43 -75 -121 -131 -188 -53 -63
-94 -121 -92 -130 4 -17 -30 -91 -47 -102 -6 -4 -167 -8 -358 -8 -337 0 -348
-1 -360 -20 -13 -20 -24 -20 -538 -20 l-525 0 -80 -26 -80 -25 -973 -17 c-752
-12 -978 -13 -993 -4 -10 7 -35 12 -54 12 l-35 0 0 -136 0 -137 58 7 c72 10
340 8 1262 -5 l735 -11 95 -34 95 -34 511 0 c446 0 513 -2 518 -15 5 -13 40
-15 236 -15 l231 0 44 -46 c25 -25 45 -50 45 -55 0 -5 -22 -9 -50 -9 l-50 0 0
-230 0 -230 -27 0 c-19 0 -44 17 -88 59 -44 43 -72 61 -99 67 -52 9 -111 -10
-138 -46 -27 -37 -55 -38 -103 -6 -62 43 -123 57 -226 54 l-94 -3 -3 -30 c-2
-16 -10 -34 -18 -38 -8 -4 -14 -16 -14 -26 0 -16 -12 -19 -87 -24 -69 -4 -90
-9 -101 -24 -7 -10 -60 -110 -117 -223 l-104 -205 -163 -103 c-90 -57 -207
-131 -262 -164 -62 -38 -104 -71 -115 -90 l-16 -30 -300 6 c-165 4 -532 11
-815 16 l-515 9 -352 -352 c-194 -193 -353 -355 -353 -358 0 -3 99 -73 221
-155 121 -81 225 -158 231 -169 6 -11 17 -24 24 -28 23 -13 16 -37 -10 -37
-27 0 -36 -16 -36 -65 0 -24 5 -34 20 -38 26 -7 26 -31 0 -57 -11 -11 -20 -29
-20 -40 0 -22 41 -70 60 -70 19 0 10 -35 -12 -45 -15 -7 -22 -17 -20 -30 7
-55 12 -63 43 -69 48 -9 58 -22 52 -62 -8 -47 18 -76 64 -72 44 3 62 -15 40
-40 -16 -17 -15 -20 12 -52 26 -32 30 -34 56 -22 35 16 57 0 49 -33 -9 -36 4
-62 35 -75 21 -8 35 -9 49 -1 29 15 45 -5 26 -34 -14 -21 -13 -24 16 -49 37
-31 39 -31 69 -10 22 16 25 14 92 -32 87 -60 93 -67 80 -93 -10 -17 -6 -24 24
-47 l36 -27 24 23 25 23 80 -54 c53 -35 79 -59 77 -69 -3 -8 -6 -21 -8 -28 -2
-7 13 -23 33 -35 35 -21 38 -21 54 -5 16 16 22 13 100 -40 69 -47 81 -59 73
-73 -15 -28 -11 -36 26 -59 34 -21 37 -21 55 -5 18 16 22 15 97 -37 71 -49 78
-57 76 -85 -2 -26 3 -35 33 -53 32 -21 36 -21 53 -6 16 15 22 13 82 -30 35
-25 70 -49 78 -53 11 -7 11 -12 1 -31 -11 -20 -9 -25 16 -46 34 -27 51 -29 73
-10 14 13 26 8 94 -41 71 -50 78 -58 72 -82 -5 -22 0 -31 24 -49 36 -26 44
-27 62 -6 15 19 42 16 147 -16 67 -19 72 -23 72 -49 0 -25 5 -30 40 -39 38 -9
42 -8 57 14 14 23 21 24 118 24 100 0 104 -1 107 -23 3 -19 10 -22 49 -25 43
-3 47 -1 53 23 6 25 8 25 105 25 96 0 100 -1 103 -23 3 -19 10 -22 49 -25 43
-3 47 -1 53 23 6 25 8 25 106 25 98 0 100 0 106 -25 6 -24 10 -26 53 -23 39 3
46 6 49 25 3 22 7 23 102 23 95 0 99 -1 102 -22 3 -20 10 -23 49 -26 43 -3 47
-1 53 23 6 25 8 25 105 25 96 0 100 -1 103 -22 3 -20 10 -23 50 -26 44 -3 48
-1 54 22 6 26 7 26 105 26 97 0 99 0 105 -25 6 -24 10 -26 53 -23 39 3 46 6
49 25 3 22 7 23 102 23 95 0 99 -1 102 -23 3 -19 10 -22 49 -25 43 -3 47 -1
53 23 6 25 8 25 105 25 96 0 100 -1 103 -22 3 -20 10 -23 49 -26 43 -3 47 -1
53 23 6 25 8 25 106 25 98 0 100 0 106 -25 6 -24 10 -26 53 -23 39 3 46 6 49
26 3 21 7 22 102 22 95 0 99 -1 102 -22 3 -20 10 -23 49 -26 43 -3 47 -1 53
23 6 25 8 25 105 25 96 0 100 -1 103 -22 3 -20 10 -23 50 -26 44 -3 48 -1 54
22 6 26 7 26 105 26 97 0 99 0 105 -25 6 -24 10 -26 53 -23 39 3 46 6 49 26 3
21 7 22 102 22 95 0 99 -1 102 -23 3 -19 10 -22 49 -25 43 -3 47 -1 53 23 6
25 8 25 105 25 96 0 100 -1 103 -22 3 -20 10 -23 49 -26 43 -3 47 -1 53 23 6
25 8 25 106 25 98 0 100 0 106 -25 6 -24 10 -26 53 -23 39 3 46 6 49 26 3 21
7 22 102 22 95 0 99 -1 102 -22 3 -20 10 -23 49 -26 43 -3 47 -1 53 23 6 25 8
25 105 25 96 0 100 -1 103 -23 3 -19 10 -22 50 -25 44 -3 48 -1 54 22 6 26 7
26 105 26 97 0 99 0 105 -25 6 -24 10 -26 53 -23 39 3 46 6 49 25 3 22 7 23
102 23 95 0 99 -1 102 -22 3 -20 10 -23 49 -26 43 -3 47 -1 53 23 6 25 8 25
105 25 96 0 100 -1 103 -22 3 -20 10 -23 49 -26 43 -3 47 -1 53 23 6 25 8 25
106 25 98 0 100 0 106 -25 6 -24 10 -26 53 -23 39 3 46 6 49 26 3 21 7 22 102
22 95 0 99 -1 102 -23 3 -19 10 -22 50 -25 44 -3 46 -2 53 27 6 28 13 32 91
56 46 14 90 28 98 31 9 3 17 -3 21 -15 7 -24 27 -26 74 -10 25 9 31 16 29 37
-3 23 5 28 87 63 l90 38 16 -21 c16 -20 19 -21 55 -7 30 12 39 20 39 39 0 20
13 29 89 63 l89 39 17 -22 17 -22 41 21 c33 17 40 26 39 46 -2 23 7 30 85 65
88 39 88 39 102 18 14 -20 17 -20 53 -7 32 13 38 20 38 44 1 27 8 32 88 69
l88 39 21 -21 21 -21 39 20 c32 16 37 23 33 42 -6 21 2 27 81 61 l87 38 20
-21 c20 -20 20 -20 59 0 31 16 38 25 36 45 -3 22 6 29 85 64 l89 40 17 -21
c16 -20 19 -20 53 -6 28 12 37 22 40 43 2 20 22 42 80 87 76 59 78 60 98 42
19 -17 21 -17 55 10 26 19 34 32 30 44 -17 40 -14 54 30 136 44 80 49 86 74
80 22 -4 29 0 44 26 22 39 22 51 -3 67 -18 11 -20 23 -20 121 0 108 0 109 25
115 22 6 25 12 25 51 0 39 -3 45 -25 51 -18 4 -27 16 -35 42 -5 20 -8 37 -7
39 4 3 215 48 532 113 116 24 212 45 214 47 9 7 -35 141 -71 216 -96 198 -238
336 -420 407 l-68 26 195 203 c107 112 193 207 190 211 -2 4 -112 51 -244 105
l-240 97 13 32 c36 85 37 85 63 75 19 -7 24 -6 21 3 -4 12 -93 50 -823 348
-165 67 -470 192 -678 277 -208 85 -384 152 -390 150 -7 -2 3 -11 21 -21 l32
-17 -30 -59 c-28 -55 -33 -60 -63 -60 -30 0 -35 6 -92 106 -33 59 -75 118 -92
133 -32 26 -34 33 -93 311 -33 157 -71 332 -84 390 -14 58 -34 153 -47 212
-12 59 -26 113 -30 120 -10 16 -113 18 -129 2 -10 -10 -30 -92 -100 -414 -11
-47 -42 -193 -69 -325 -54 -255 -63 -285 -84 -285 -7 0 -24 -11 -37 -25 -21
-23 -31 -25 -101 -25 l-78 0 -3 148 -3 147 -123 3 -122 3 -105 208 c-105 211
-133 290 -165 471 -14 76 -25 100 -46 100 -14 0 -16 -11 -12 -71 l4 -70 -128
255 -128 256 -36 -15 c-30 -12 -91 -15 -333 -15 l-297 0 -13 35 c-12 34 -53
65 -86 65 -8 0 -15 7 -15 15 0 13 -42 15 -315 15 -203 0 -315 4 -315 10 0 6
-9 10 -20 10 -11 0 -20 6 -20 14 0 41 -100 88 -225 106 -84 12 -328 13 -321 2z
m2526 -1442 c0 -5 -4 -10 -10 -10 -5 0 -10 5 -10 10 0 6 5 10 10 10 6 0 10 -4
10 -10z m1957 -544 c274 -111 660 -269 858 -350 199 -81 366 -151 373 -155 10
-6 7 -21 -12 -65 l-25 -57 -38 16 c-21 9 -145 59 -275 112 -220 88 -237 97
-240 122 -3 25 -6 26 -78 31 -69 5 -114 21 -600 219 -289 118 -526 215 -528
216 -5 4 52 115 59 115 4 0 232 -92 506 -204z m-1609 129 c-30 -45 -48 -45
-48 0 0 33 2 35 35 35 l35 0 -22 -35z m-8748 -1996 c0 -20 -5 -29 -16 -29 -11
0 -14 5 -10 16 3 9 6 25 6 35 0 11 5 17 10 14 6 -3 10 -19 10 -36z m-41 -133
c9 -50 10 -81 4 -87 -7 -7 -14 17 -23 67 -6 43 -15 84 -18 92 -3 10 0 13 9 10
9 -3 19 -34 28 -82z m-45 12 c9 -36 7 -48 -9 -48 -16 0 -31 43 -20 59 10 18
22 13 29 -11z m117 -176 c-14 -11 -17 -9 -25 23 -4 19 -5 43 -1 53 6 14 11 9
25 -23 16 -37 17 -41 1 -53z m48 -111 c53 -61 57 -96 5 -38 -85 93 -88 97 -72
97 8 0 38 -27 67 -59z m-39 -21 c20 -28 20 -30 3 -30 -24 0 -43 19 -43 42 0
27 16 22 40 -12z m249 -188 c36 -32 60 -61 55 -65 -5 -3 -41 23 -79 58 -39 35
-63 64 -55 64 8 1 44 -25 79 -57z m-9 -53 c0 -15 -20 -20 -40 -9 -12 6 -20 21
-20 36 l0 25 30 -23 c17 -12 30 -25 30 -29z m172 2 c26 -9 48 -18 48 -21 -1
-3 -12 -13 -26 -23 -25 -18 -25 -18 -64 15 -40 35 -54 66 -22 53 9 -4 38 -15
64 -24z m248 -51 c0 -28 -62 -112 -74 -99 -2 2 5 28 17 57 14 37 25 52 38 52
11 0 19 -5 19 -10z m49 -45 c15 -26 27 -35 48 -35 28 -1 28 -1 -17 -41 -69
-60 -72 -61 -113 -32 l-36 25 31 26 c17 14 37 41 44 59 8 18 16 33 18 33 2 0
13 -16 25 -35z m-218 -36 c62 -46 83 -70 62 -69 -14 1 -143 100 -143 110 0 17
10 12 81 -41z m689 -20 c149 -9 168 -12 200 -34 51 -35 116 -62 188 -76 l62
-13 -6 -86 c-11 -151 22 -296 99 -432 l43 -75 -37 -32 -38 -31 -46 32 c-25 17
-45 36 -45 42 0 5 12 47 27 92 28 88 27 108 -11 125 -23 11 -32 6 -101 -49
l-77 -62 -45 31 c-24 17 -42 36 -40 42 2 7 16 49 32 95 26 80 26 84 9 103 -28
31 -57 23 -129 -36 -36 -30 -71 -55 -77 -55 -5 0 -29 13 -53 30 l-43 30 31 94
c30 93 31 95 12 115 -28 32 -51 26 -129 -38 l-73 -59 -46 30 c-26 17 -47 35
-47 40 0 5 14 49 31 98 l32 90 56 0 c31 0 130 -5 221 -11z m10133 -14 c-3 -9
-8 -14 -10 -11 -3 3 -2 9 2 15 9 16 15 13 8 -4z m-9793 -57 c10 -6 7 -7 -10
-2 -14 3 -32 11 -40 16 -10 6 -7 7 10 2 14 -3 32 -11 40 -16z m8723 -73 c39
-30 102 -70 138 -87 l67 -32 7 -60 c3 -34 9 -73 12 -88 5 -23 0 -29 -36 -47
-22 -12 -47 -21 -55 -21 -9 0 -41 31 -73 70 -62 75 -88 85 -122 51 -16 -16
-17 -26 -10 -77 21 -147 25 -129 -32 -153 -29 -11 -54 -21 -58 -21 -3 0 -31
31 -61 70 -30 38 -61 72 -68 75 -8 3 -26 -1 -40 -8 -30 -14 -33 -36 -18 -157
l7 -65 -48 -20 c-26 -11 -51 -20 -54 -20 -3 0 -31 30 -62 66 l-56 66 26 63
c31 77 52 191 53 283 l0 67 74 0 74 0 40 -45 c37 -42 62 -57 62 -36 0 5 19 29
43 53 23 24 57 63 75 86 19 23 36 42 38 42 2 0 37 -25 77 -55z m-9493 -2 c67
-46 82 -63 59 -63 -17 0 -149 96 -142 104 10 9 10 9 83 -41z m10460 23 c0 -8
-141 -108 -146 -103 -3 2 10 14 29 26 19 11 51 34 72 51 37 29 45 34 45 26z
m-4608 -126 c-2 -30 4 -94 13 -143 29 -168 96 -292 226 -419 l78 -76 -19 -69
c-11 -37 -20 -69 -20 -71 0 -2 -26 -2 -57 0 l-57 3 -25 95 -26 95 -36 3 c-21
2 -40 -2 -46 -10 -5 -7 -20 -50 -33 -95 l-24 -83 -62 0 c-59 0 -62 1 -68 28
-4 15 -16 58 -27 95 l-20 68 -42 -3 -41 -3 -26 -90 -26 -90 -60 -3 -61 -3 -12
43 c-7 24 -14 50 -17 59 -3 11 7 24 27 36 50 32 148 133 192 198 80 117 127
269 127 410 l0 74 43 4 c23 2 55 4 71 3 30 -1 30 -1 28 -56z m-1648 22 c-10
-49 15 -209 46 -293 55 -151 156 -281 284 -367 l72 -48 -11 -40 -11 -39 -61
-3 c-59 -3 -61 -2 -67 25 -29 119 -48 163 -70 169 -35 9 -61 -10 -74 -53 -6
-21 -18 -64 -27 -96 l-17 -58 -56 3 -56 3 -25 95 -26 95 -36 3 c-21 2 -40 -2
-46 -10 -5 -7 -20 -50 -33 -95 l-24 -83 -61 0 -61 0 -26 92 -27 93 53 55 c129
136 192 286 203 478 l6 102 78 0 79 0 -6 -28z m3299 -69 c12 -194 78 -349 205
-485 32 -34 42 -51 35 -60 -6 -7 -20 -50 -33 -96 l-24 -82 -62 0 c-59 0 -62 1
-68 28 -4 15 -16 58 -27 95 l-20 68 -42 -3 -41 -3 -26 -90 -26 -90 -61 -3 -61
-3 -23 87 c-23 89 -38 114 -68 114 -32 0 -49 -25 -71 -100 -12 -41 -24 -83
-26 -92 -4 -14 -17 -18 -60 -18 -58 0 -63 4 -67 55 -2 25 5 32 58 63 33 19 98
74 145 121 137 137 206 293 217 489 l6 102 67 0 67 0 6 -97z m-4959 0 c9 -116
29 -199 70 -286 33 -72 102 -171 149 -216 20 -18 23 -27 16 -40 -5 -9 -20 -52
-32 -96 l-23 -80 -61 -3 c-59 -3 -61 -2 -67 25 -29 119 -48 163 -70 169 -35 9
-61 -10 -74 -53 -6 -21 -18 -64 -27 -96 l-17 -58 -56 3 -56 3 -25 95 -26 95
-36 3 c-21 2 -40 -2 -46 -10 -5 -7 -20 -50 -33 -96 l-24 -82 -62 0 -62 0 -10
40 -10 39 57 32 c31 17 94 70 141 118 135 136 203 290 217 489 l6 92 77 0 77
0 7 -87z m7656 20 c-1 -13 -170 -82 -175 -72 -7 10 39 35 110 60 57 21 65 22
65 12z m-9944 -49 c56 -39 78 -64 58 -64 -10 0 -143 95 -144 103 0 16 26 5 86
-39z m9707 16 c20 0 37 -3 37 -7 0 -5 -22 -18 -49 -29 l-49 -22 -26 27 c-35
37 -33 45 12 37 20 -3 54 -6 75 -6z m-53 -90 c0 -5 -30 -23 -66 -40 -75 -34
-92 -39 -94 -26 -1 5 32 24 72 42 81 36 88 38 88 24z m-9392 -107 c54 -38 76
-63 56 -63 -14 0 -153 104 -148 112 6 10 11 7 92 -49z m9110 -14 c-3 -9 -148
-79 -164 -79 -33 0 122 87 159 89 5 1 7 -4 5 -10z m-8868 -160 c39 -28 68 -54
65 -59 -3 -5 -39 14 -80 42 -41 28 -72 55 -69 60 8 12 9 12 84 -43z m8580 32
c0 -6 -78 -45 -157 -78 -7 -3 -13 0 -13 6 0 6 33 27 73 45 75 36 97 42 97 27z
m-480 -105 c0 -13 2 -31 6 -39 3 -10 -11 -21 -51 -37 -31 -12 -59 -20 -62 -16
-6 6 86 113 100 115 4 1 7 -10 7 -23z m195 -16 c3 -5 -23 -23 -59 -39 -87 -39
-109 -46 -104 -31 2 8 120 68 155 79 1 1 5 -3 8 -9z m-8037 -88 c53 -38 76
-62 57 -62 -17 0 -155 102 -150 111 7 11 8 10 93 -49z m191 -39 c2 -2 -1 -14
-7 -28 l-12 -26 -45 31 c-27 19 -42 36 -40 45 3 8 7 22 10 31 4 13 13 10 48
-17 23 -18 44 -34 46 -36z m7561 9 c0 -11 -159 -76 -167 -68 -9 9 -4 12 72 45
73 31 95 37 95 23z m-5798 -56 c64 -31 76 -41 70 -56 -4 -10 -10 -19 -14 -19
-5 -1 -32 -1 -62 -1 l-54 0 -11 44 c-6 24 -14 51 -17 61 -4 10 -3 16 2 13 5
-2 44 -21 86 -42z m5027 -33 c2 -1 0 -14 -3 -28 -6 -25 -10 -26 -63 -23 l-56
3 -18 62 -17 62 76 -37 c43 -20 79 -38 81 -39z m-4325 30 c-18 -72 -19 -73
-84 -73 -51 0 -60 3 -60 18 0 13 15 23 49 36 27 9 57 24 67 31 28 21 35 18 28
-12z m2766 -65 c0 -10 -120 -11 -120 0 0 4 -3 17 -6 29 l-6 22 66 -22 c36 -11
66 -25 66 -29z m-5150 16 c44 -14 78 -29 75 -34 -3 -5 -11 -7 -18 -5 -7 2 -45
13 -85 25 -40 12 -70 25 -67 31 8 12 2 13 95 -17z m139 2 c25 -7 47 -18 49
-24 2 -8 -12 -7 -45 3 -26 8 -49 15 -50 15 -2 0 -3 5 -3 10 0 12 -4 12 49 -4z
m3781 5 c0 -32 -14 -41 -65 -41 -73 0 -77 15 -7 33 74 19 72 18 72 8z m3270
-9 c0 -6 -143 -52 -163 -52 -4 0 -7 4 -7 9 0 5 33 18 73 29 81 23 97 25 97 14z
m-6685 -12 c-3 -5 -25 -9 -48 -9 l-42 2 40 7 c22 4 44 8 48 9 5 0 5 -3 2 -9z
m3085 -11 c11 -6 9 -8 -10 -9 -42 0 -100 12 -100 21 0 10 88 0 110 -12z m1876
3 c-2 -4 -24 -9 -48 -10 -31 -2 -39 0 -28 8 18 12 83 14 76 2z m-3493 -9 c-7
-2 -19 -2 -25 0 -7 3 -2 5 12 5 14 0 19 -2 13 -5z m-1593 -28 c0 -12 -17 -15
-90 -15 -83 0 -101 5 -83 23 3 4 44 7 90 7 67 0 83 -3 83 -15z m268 6 c23 -1
42 -5 42 -11 0 -6 -37 -10 -90 -10 -80 0 -101 5 -85 22 3 3 24 4 48 2 23 -1
61 -3 85 -3z m662 -6 c0 -12 -17 -15 -90 -15 -83 0 -101 5 -83 23 3 4 44 7 90
7 67 0 83 -3 83 -15z m253 6 c31 -1 57 -5 57 -11 0 -6 -37 -10 -90 -10 -79 0
-101 5 -85 21 2 3 17 4 32 3 15 -1 54 -3 86 -3z m677 -6 c0 -12 -16 -15 -84
-15 -78 0 -105 7 -89 24 3 3 44 6 90 6 67 0 83 -3 83 -15z m268 6 c23 -1 42
-5 42 -11 0 -6 -37 -10 -90 -10 -80 0 -101 5 -85 22 3 3 24 4 48 2 23 -1 61
-3 85 -3z m662 -6 c0 -12 -17 -15 -90 -15 -83 0 -101 5 -83 23 3 4 44 7 90 7
67 0 83 -3 83 -15z m253 6 c31 -1 57 -5 57 -11 0 -6 -37 -10 -90 -10 -79 0
-101 5 -85 21 2 3 17 4 32 3 15 -1 54 -3 86 -3z m677 -6 c0 -12 -16 -15 -84
-15 -78 0 -105 7 -89 24 3 3 44 6 90 6 67 0 83 -3 83 -15z m268 6 c23 -1 42
-5 42 -11 0 -6 -37 -10 -90 -10 -80 0 -101 5 -85 22 3 3 24 4 48 2 23 -1 61
-3 85 -3z m662 -6 c0 -12 -17 -15 -90 -15 -83 0 -101 5 -83 23 3 4 44 7 90 7
67 0 83 -3 83 -15z m253 6 c31 -1 57 -5 57 -11 0 -6 -37 -10 -90 -10 -79 0
-101 5 -85 21 2 3 17 4 32 3 15 -1 54 -3 86 -3z m677 -6 c0 -12 -16 -15 -84
-15 -78 0 -105 7 -89 24 3 3 44 6 90 6 67 0 83 -3 83 -15z m268 6 c23 -1 42
-5 42 -11 0 -6 -37 -10 -90 -10 -80 0 -101 5 -85 22 3 3 24 4 48 2 23 -1 61
-3 85 -3z m662 -6 c0 -12 -17 -15 -90 -15 -83 0 -101 5 -83 23 3 4 44 7 90 7
67 0 83 -3 83 -15z m-5880 -5 c0 -6 -38 -10 -95 -10 -57 0 -95 4 -95 10 0 6
38 10 95 10 57 0 95 -4 95 -10z m930 0 c0 -6 -38 -10 -95 -10 -57 0 -95 4 -95
10 0 6 38 10 95 10 57 0 95 -4 95 -10z m930 0 c0 -6 -38 -10 -95 -10 -57 0
-95 4 -95 10 0 6 38 10 95 10 57 0 95 -4 95 -10z m930 0 c0 -6 -38 -10 -95
-10 -57 0 -95 4 -95 10 0 6 38 10 95 10 57 0 95 -4 95 -10z m930 0 c0 -6 -38
-10 -95 -10 -57 0 -95 4 -95 10 0 6 38 10 95 10 57 0 95 -4 95 -10z m930 0 c0
-6 -38 -10 -95 -10 -57 0 -95 4 -95 10 0 6 38 10 95 10 57 0 95 -4 95 -10z
m930 0 c0 -6 -38 -10 -95 -10 -57 0 -95 4 -95 10 0 6 38 10 95 10 57 0 95 -4
95 -10z"/>
</g>
</svg>
